<svg xmlns="http://www.w3.org/2000/svg" width="512" height="512" viewBox="0 0 512 512">
  <defs>
    <linearGradient id="bg-gradient" x1="0%" y1="0%" x2="100%" y2="100%">
      <stop offset="0%" style="stop-color:#6750A4"/>
      <stop offset="100%" style="stop-color:#D0BCFF"/>
    </linearGradient>
  </defs>
  
  <!-- Background -->
  <rect width="512" height="512" rx="128" fill="url(#bg-gradient)"/>
  
  <!-- Calendar Icon -->
  <rect x="96" y="128" width="320" height="288" rx="24" fill="white" opacity="0.95"/>
  
  <!-- Calendar Header -->
  <rect x="96" y="128" width="320" height="72" rx="24" fill="#4F378B"/>
  <rect x="96" y="176" width="320" height="24" fill="#4F378B"/>
  
  <!-- Calendar Hooks -->
  <rect x="160" y="104" width="24" height="48" rx="12" fill="#EADDFF"/>
  <rect x="328" y="104" width="24" height="48" rx="12" fill="#EADDFF"/>
  
  <!-- Grid Lines -->
  <line x1="96" y1="264" x2="416" y2="264" stroke="#CAC4D0" stroke-width="2"/>
  <line x1="96" y1="336" x2="416" y2="336" stroke="#CAC4D0" stroke-width="2"/>
  <line x1="203" y1="200" x2="203" y2="416" stroke="#CAC4D0" stroke-width="2"/>
  <line x1="309" y1="200" x2="309" y2="416" stroke="#CAC4D0" stroke-width="2"/>
  
  <!-- Current Day Highlight -->
  <rect x="213" y="274" width="86" height="52" rx="12" fill="#EADDFF"/>
  
  <!-- Clock Icon -->
  <circle cx="256" cy="300" r="20" fill="none" stroke="#6750A4" stroke-width="4"/>
  <line x1="256" y1="288" x2="256" y2="300" stroke="#6750A4" stroke-width="4" stroke-linecap="round"/>
  <line x1="256" y1="300" x2="266" y2="306" stroke="#6750A4" stroke-width="4" stroke-linecap="round"/>
</svg>
